# xmcd CD database file
#
# Track frame offsets:
#	182
#	27317
#	40892
#	52357
#	64865
#	78377
#	93342
#	107717
#	119370
#	129842
#	142442
#	156842
#	168420
#	182020
#	197657
#	211357
#	224342
#	237560
#	248437
#	260870
#	271665
#	286445
#	299567
#
# Disc length: 4196 seconds
#
# Revision: 0
# Processed by: cddbd v1.5.2PL0 Copyright (c) Steve Scherf et al.
# Submitted via: CDex 1.51
#
DISCID=6b106217
DTITLE=Frank Weir - The Man and His Music 
DYEAR=1900
DGENRE=Jazz
TTITLE0=St. Louis Blues
TTITLE1=Wrap Yourself In Cotton Wool 
TTITLE2=Come Happy Day
TTITLE3=I'd Do It All Over Again 
TTITLE4=Cocktails For Two
TTITLE5=I Didn't Know About You 
TTITLE6=That's For Me 
TTITLE7=I'm Making Believe
TTITLE8=Henderson Stomp
TTITLE9=I'll Be Around 
TTITLE10=Oh Lady Be Good
TTITLE11=Rose Marie
TTITLE12=Perfidia 
TTITLE13=What A Difference A Day Made 
TTITLE14=You Go To My Head 
TTITLE15=Between The Devil And The Deep Blue Sea
TTITLE16=Chlo-E (D )
TTITLE17=Out Of Nowhere 
TTITLE18=Together 
TTITLE19=Carioca 
TTITLE20=Anne Laurie
TTITLE21=Clarinet A La King
TTITLE22=Struttin' At The Astor
EXTD=
EXTT0=
EXTT1=
EXTT2=
EXTT3=
EXTT4=
EXTT5=
EXTT6=
EXTT7=
EXTT8=
EXTT9=
EXTT10=
EXTT11=
EXTT12=
EXTT13=
EXTT14=
EXTT15=
EXTT16=
EXTT17=
EXTT18=
EXTT19=
EXTT20=
EXTT21=
EXTT22=
PLAYORDER=
